<?xml version="1.0" encoding="utf-8"?>
<svg width="220.97473px" height="96.818184px" viewBox="0 0 220.97473 96.818184" version="1.1" xmlns:xlink="http://www.w3.org/1999/xlink" xmlns="http://www.w3.org/2000/svg">
  <defs>
    <filter filterUnits="userSpaceOnUse" color-interpolation-filters="sRGB" id="filter_1">
      <feFlood flood-opacity="0" result="BackgroundImageFix" />
      <feColorMatrix in="SourceAlpha" type="matrix" values="0 0 0 0 0 0 0 0 0 0 0 0 0 0 0 0 0 0 127 0" />
      <feOffset dx="-6" dy="-3" />
      <feGaussianBlur stdDeviation="3.5" />
      <feColorMatrix type="matrix" values="0 0 0 0 0.39215687 0 0 0 0 0.39215687 0 0 0 0 0.39215687 0 0 0 0.49803922 0" />
      <feBlend mode="normal" in2="BackgroundImageFix" result="effect0_dropShadow" />
      <feBlend mode="normal" in="SourceGraphic" in2="effect0_dropShadow" result="shape" />
    </filter>
    <path d="M0.0249023 0L200 0L200 90L0.0249023 90L0.0249023 0Z" id="path_1" />
    <path d="M0.252808 59.3182L199.975 59.3182L199.975 90L0.252808 90L0.252808 59.3182Z" id="path_2" />
    <clipPath id="clip_1">
      <use xlink:href="#path_1" />
    </clipPath>
    <clipPath id="clip_2">
      <use xlink:href="#path_2" />
    </clipPath>
  </defs>
  <g id="Group-7" transform="translate(16.5 0)">
    <g id="Group-6">
      <g id="Rectangle">
        <use stroke="none" fill="#FFFFFF" xlink:href="#path_1" fill-rule="evenodd" />
        <g clip-path="url(#clip_1)">
          <use xlink:href="#path_1" fill="none" stroke="#000000" stroke-width="2" />
        </g>
      </g>
      <g id="Group-5">
        <g id="Group-4">
          <g id="Group-3">
            <g id="Group-2">
              <g id="Rectangle">
                <g clip-path="url(#clip_2)">
                  <use xlink:href="#path_2" fill="none" stroke="#000000" stroke-width="2" />
                </g>
              </g>
              <g id="Group">
                <path d="M0 0L182.59 0L182.59 61.3636L0 61.3636L0 0Z" id="Rectangle" fill="#0E0E0E" fill-rule="evenodd" stroke="none" />
                <path d="M103.653 0L200 0L200 61.3636L103.653 61.3636L103.653 0Z" id="Rectangle-2" fill="#000000" fill-rule="evenodd" stroke="none" />
                <g fill="#FFFFFF" stroke="none" id="Z" transform="translate(20.628662 4.090909)">
                  <path d="M5.67117 51.2727L5.67117 46.4357L24.9063 19.4464L5.63353 19.4464L5.63353 12.7273L35.1449 12.7273L35.1449 17.5643L15.891 44.5536L35.1825 44.5536L35.1825 51.2727L5.67117 51.2727Z" />
                </g>
                <g fill="#FFFFFF" stroke="none" id="I" transform="translate(63.24475 4.090909)">
                  <path d="M11.4996 12.7273L11.4996 51.2727L3.35014 51.2727L3.35014 12.7273L11.4996 12.7273Z" />
                </g>
                <path d="M113.027 16.7585L113.029 16.7593Q113.287 16.8609 113.54 16.9719Q113.793 17.083 114.042 17.2035Q114.291 17.3239 114.536 17.4536Q114.78 17.5833 115.019 17.722Q115.258 17.8607 115.492 18.0082Q115.726 18.1557 115.955 18.3119Q116.183 18.4681 116.405 18.6326Q116.628 18.7972 116.844 18.97Q117.06 19.1427 117.269 19.3234Q117.478 19.5042 117.681 19.6926Q117.883 19.8809 118.079 20.0768Q118.274 20.2726 118.462 20.4756Q118.65 20.6786 118.83 20.8884Q119.01 21.0983 119.182 21.3147Q119.355 21.5311 119.519 21.7539Q119.683 21.9766 119.838 22.2053Q119.994 22.4339 120.141 22.6683Q120.288 22.9026 120.426 23.1422Q120.564 23.3819 120.693 23.6265Q120.822 23.8712 120.942 24.1205Q121.062 24.3698 121.172 24.6233Q121.283 24.8769 121.384 25.1345Q121.484 25.392 121.576 25.6531Q121.667 25.9142 121.748 26.1786Q121.83 26.4429 121.901 26.7101Q121.973 26.9773 122.034 27.247Q122.096 27.5167 122.147 27.7885Q122.198 28.0603 122.239 28.3338Q122.281 28.6073 122.311 28.8822Q122.342 29.157 122.363 29.4328Q122.384 29.7087 122.394 29.9851Q122.404 30.2615 122.404 30.5381L122.404 40.0945Q122.404 40.4004 122.376 40.7051Q122.347 41.0098 122.29 41.3104Q122.233 41.6111 122.149 41.9051Q122.064 42.1991 121.952 42.484Q121.84 42.7688 121.703 43.042Q121.565 43.3152 121.402 43.5743Q121.239 43.8334 121.053 44.0761Q120.867 44.3189 120.658 44.5432C122.404 42.6614 118.912 46.4256 118.912 46.4256C118.912 46.4256 113.412 48.6141 109.619 49.0163C108.467 49.1385 107.465 49.1865 106.627 49.194C104.98 49.2088 103.653 47.6812 103.653 46.0342L103.653 23.1366Q103.653 22.928 103.666 22.7197Q103.679 22.5115 103.704 22.3044Q103.729 22.0973 103.767 21.8921Q103.805 21.687 103.855 21.4845Q103.905 21.282 103.968 21.0829Q104.03 20.8839 104.105 20.689Q104.179 20.4941 104.266 20.3041Q104.352 20.1141 104.449 19.9297Q104.547 19.7453 104.656 19.5672Q104.764 19.389 104.883 19.2178Q105.003 19.0466 105.132 18.883Q105.261 18.7194 105.401 18.5639Q105.54 18.4084 105.688 18.2617Q105.836 18.115 105.993 17.9776Q106.15 17.8401 106.315 17.7125Q106.48 17.5849 106.653 17.4675Q106.825 17.3501 107.005 17.2435Q107.184 17.1368 107.369 17.0413Q107.555 16.9457 107.746 16.8616Q107.937 16.7775 108.132 16.7052Q108.328 16.6328 108.528 16.5725Q108.728 16.5122 108.931 16.4641Q109.134 16.4161 109.339 16.3804Q109.545 16.3448 109.752 16.3218Q109.959 16.2987 110.168 16.2883Q110.376 16.2779 110.585 16.2801Q110.793 16.2824 111.002 16.2974Q111.21 16.3123 111.416 16.3399Q111.623 16.3675 111.828 16.4076Q112.033 16.4477 112.235 16.5002Q112.437 16.5526 112.635 16.6173Q112.833 16.6819 113.027 16.7585Z" id="Rectangle-3" fill="#D3D3D3" fill-opacity="0.81960785" fill-rule="evenodd" stroke="none" />
                <g fill="#D3D3D3" stroke="none" id="N" transform="translate(132.3053 4.090909)">
                  <path d="M35.5906 12.7273L35.5906 51.2727L28.5515 51.2727L11.782 27.0124L11.4996 27.0124L11.4996 51.2727L3.35014 51.2727L3.35014 12.7273L10.5021 12.7273L27.1399 36.9688L27.4787 36.9688L27.4787 12.7273L35.5906 12.7273Z" />
                </g>
              </g>
            </g>
          </g>
        </g>
        <g stroke="#808080" stroke-width="1" id="WELLNESS" filter="url(#filter_1)" transform="translate(0 59.318184)">
          <path d="M150.298 11.1381Q150.192 10.0639 149.379 9.4691Q148.567 8.87429 147.191 8.87429Q145.779 8.87429 145.025 9.45135Q144.27 10.0284 144.27 10.9073Q144.252 11.8839 145.109 12.3855Q145.966 12.8871 147.147 13.1623L148.78 13.5529Q150.36 13.908 151.59 14.5827Q152.819 15.2575 153.525 16.3184Q154.231 17.3793 154.231 18.8974Q154.222 21.392 152.362 22.8702Q150.502 24.3484 147.173 24.3484Q143.862 24.3484 141.891 22.8391Q139.92 21.3299 139.849 18.3825L143.569 18.3825Q143.666 19.7496 144.647 20.4377Q145.628 21.1257 147.129 21.1257Q148.594 21.1257 149.468 20.5043Q150.343 19.8828 150.351 18.8885Q150.343 17.9652 149.544 17.468Q148.745 16.9709 147.262 16.6158L145.282 16.1186Q142.983 15.5682 141.651 14.3697Q140.319 13.1712 140.328 11.1648Q140.319 9.51349 141.212 8.27503Q142.104 7.03658 143.666 6.34854Q145.229 5.66051 147.218 5.66051Q149.242 5.66051 150.755 6.35298Q152.269 7.04545 153.112 8.27947Q153.956 9.51349 153.982 11.1381L150.298 11.1381ZM167.55 9.4691Q168.362 10.0639 168.469 11.1381L172.153 11.1381Q172.127 9.51349 171.283 8.27947Q170.44 7.04545 168.926 6.35298Q167.412 5.66051 165.388 5.66051Q163.4 5.66051 161.837 6.34854Q160.275 7.03658 159.382 8.27503Q158.49 9.51349 158.499 11.1648Q158.49 13.1712 159.822 14.3697Q161.154 15.5682 163.453 16.1186L165.433 16.6158Q166.915 16.9709 167.714 17.468Q168.513 17.9652 168.522 18.8885Q168.513 19.8828 167.639 20.5043Q166.764 21.1257 165.299 21.1257Q163.799 21.1257 162.818 20.4377Q161.837 19.7496 161.739 18.3825L158.02 18.3825Q158.091 21.3299 160.062 22.8391Q162.032 24.3484 165.344 24.3484Q168.673 24.3484 170.533 22.8702Q172.393 21.392 172.402 18.8974Q172.402 17.3793 171.696 16.3184Q170.99 15.2575 169.761 14.5827Q168.531 13.908 166.951 13.5529L165.317 13.1623Q164.136 12.8871 163.28 12.3855Q162.423 11.8839 162.441 10.9073Q162.441 10.0284 163.195 9.45135Q163.95 8.87429 165.362 8.87429Q166.738 8.87429 167.55 9.4691ZM25.2492 5.90909L30.4516 24.0909L34.1981 24.0909L37.6516 12.2035L37.7936 12.2035L41.256 24.0909L45.0024 24.0909L50.2048 5.90909L46.0056 5.90909L42.996 18.5689L42.8362 18.5689L39.5248 5.90909L35.9293 5.90909L32.6089 18.5423L32.458 18.5423L29.4484 5.90909L25.2492 5.90909ZM54.0556 5.90909L54.0556 24.0909L66.3425 24.0909L66.3425 20.9215L57.8997 20.9215L57.8997 16.5803L65.6767 16.5803L65.6767 13.4109L57.8997 13.4109L57.8997 9.07848L66.307 9.07848L66.307 5.90909L54.0556 5.90909ZM71.1699 24.0909L71.1699 5.90909L75.014 5.90909L75.014 20.9215L82.8087 20.9215L82.8087 24.0909L71.1699 24.0909ZM87.1567 5.90909L87.1567 24.0909L98.7955 24.0909L98.7955 20.9215L91.0008 20.9215L91.0008 5.90909L87.1567 5.90909ZM118.351 5.90909L118.351 24.0909L115.031 24.0909L107.121 12.6474L106.988 12.6474L106.988 24.0909L103.143 24.0909L103.143 5.90909L106.517 5.90909L114.365 17.3437L114.525 17.3437L114.525 5.90909L118.351 5.90909ZM123.321 5.90909L123.321 24.0909L135.608 24.0909L135.608 20.9215L127.165 20.9215L127.165 16.5803L134.942 16.5803L134.942 13.4109L127.165 13.4109L127.165 9.07848L135.572 9.07848L135.572 5.90909L123.321 5.90909Z" />
        </g>
        <g fill="#FFFFFF" stroke="none" id="O" transform="translate(82.99988 0.09090805)">
          <path d="M40.9659 34Q40.9659 40.6619 38.4503 45.3352Q35.9347 50.0085 31.6193 52.4645Q27.304 54.9205 21.8949 54.9205Q16.4659 54.9205 12.1506 52.4545Q7.83523 49.9886 5.32955 45.3054Q2.82386 40.6222 2.82386 34Q2.82386 27.3381 5.32955 22.6648Q7.83523 17.9915 12.1506 15.5355Q16.4659 13.0795 21.8949 13.0795Q27.304 13.0795 31.6193 15.5355Q35.9347 17.9915 38.4503 22.6648Q40.9659 27.3381 40.9659 34ZM32.2358 34Q32.2358 27.517 29.4119 24.1065Q26.5881 20.696 21.8949 20.696Q17.2017 20.696 14.3778 24.1065Q11.554 27.517 11.554 34Q11.554 40.4631 14.3778 43.8835Q17.2017 47.304 21.8949 47.304Q26.5881 47.304 29.4119 43.8835Q32.2358 40.4631 32.2358 34Z" />
        </g>
      </g>
    </g>
  </g>
</svg>