<?xml version="1.0" encoding="utf-8"?>
<svg width="237.32996px" height="132px" viewBox="0 0 237.32996 132" version="1.1" xmlns:xlink="http://www.w3.org/1999/xlink" xmlns="http://www.w3.org/2000/svg">
  <defs>
    <path d="M0.300049 87L237.3 87L237.3 132L0.300049 132L0.300049 87Z" id="path_1" />
    <clipPath id="clip_1">
      <use xlink:href="#path_1" />
    </clipPath>
  </defs>
  <g id="Group-2">
    <g id="Rectangle">
      <g clip-path="url(#clip_1)">
        <use xlink:href="#path_1" fill="none" stroke="#000000" stroke-width="2" />
      </g>
    </g>
    <g id="Group">
      <path d="M0 0L216.67 0L216.67 90L0 90L0 0Z" id="Rectangle" fill="#0E0E0E" fill-rule="evenodd" stroke="none" />
      <path d="M123 0L237.33 0L237.33 90L123 90L123 0Z" id="Rectangle-2" fill="#000000" fill-rule="evenodd" stroke="none" />
      <g fill="#FFFFFF" stroke="none" id="Z" transform="translate(24.479004 6)">
        <path d="M4.08723 70.5455L4.08723 63.8832L30.5808 26.7092L4.03539 26.7092L4.03539 17.4545L44.6831 17.4545L44.6831 24.1168L18.1636 61.2908L44.735 61.2908L44.735 70.5455L4.08723 70.5455Z" />
      </g>
      <g fill="#FFFFFF" stroke="none" id="I" transform="translate(75.04944 6)">
        <path d="M15.8391 17.4545L15.8391 70.5455L4.61435 70.5455L4.61435 17.4545L15.8391 17.4545Z" />
      </g>
      <path d="M134.124 24.5793L134.126 24.5802Q134.437 24.7318 134.742 24.8942Q135.047 25.0565 135.347 25.2294Q135.646 25.4023 135.939 25.5856Q136.233 25.7688 136.519 25.9622Q136.806 26.1556 137.086 26.3588Q137.365 26.5621 137.638 26.775Q137.91 26.9879 138.175 27.2101Q138.44 27.4324 138.697 27.6638Q138.954 27.8952 139.203 28.1354Q139.451 28.3756 139.692 28.6243Q139.932 28.8731 140.163 29.13Q140.395 29.387 140.617 29.6519Q140.839 29.9168 141.052 30.1892Q141.265 30.4617 141.468 30.7415Q141.671 31.0212 141.865 31.3079Q142.058 31.5945 142.241 31.8878Q142.424 32.181 142.597 32.4805Q142.77 32.7799 142.932 33.0852Q143.095 33.3905 143.246 33.7013Q143.398 34.0121 143.538 34.328Q143.679 34.6438 143.809 34.9644Q143.938 35.285 144.056 35.61Q144.175 35.9349 144.281 36.2637Q144.388 36.5926 144.484 36.9249Q144.579 37.2573 144.663 37.5928Q144.746 37.9283 144.818 38.2665Q144.89 38.6048 144.95 38.9453Q145.01 39.2858 145.058 39.6282Q145.106 39.9706 145.142 40.3145Q145.179 40.6584 145.203 41.0033Q145.227 41.3482 145.239 41.6938Q145.251 42.0394 145.251 42.3851L145.251 59.1188Q145.251 59.9534 145.117 60.7772Q144.983 61.601 144.719 62.3927Q144.455 63.1845 144.068 63.9236Q143.68 64.6628 143.179 65.3302C145.251 62.5701 141.107 68.0909 141.107 68.0909C141.107 68.0909 134.58 71.3007 130.08 71.8906C128.71 72.0701 127.519 72.1404 126.523 72.1513C124.569 72.1726 123 70.3062 123 68.3517L123 31.5298Q123 31.2851 123.015 31.0409Q123.031 30.7966 123.062 30.5538Q123.093 30.3111 123.139 30.0707Q123.185 29.8304 123.246 29.5935Q123.308 29.3565 123.384 29.1239Q123.46 28.8914 123.551 28.6641Q123.641 28.4367 123.746 28.2156Q123.851 27.9945 123.97 27.7805Q124.088 27.5664 124.22 27.3603Q124.352 27.1542 124.497 26.9568Q124.642 26.7595 124.799 26.5717Q124.955 26.3838 125.124 26.2063Q125.292 26.0288 125.472 25.8623Q125.651 25.6958 125.841 25.541Q126.03 25.3861 126.229 25.2436Q126.428 25.101 126.636 24.9714Q126.843 24.8417 127.058 24.7254Q127.274 24.6091 127.496 24.5066Q127.718 24.4042 127.947 24.316Q128.175 24.2278 128.408 24.1542Q128.642 24.0806 128.879 24.0219Q129.117 23.9633 129.358 23.9197Q129.598 23.8762 129.842 23.848Q130.085 23.8197 130.329 23.8069Q130.573 23.7942 130.818 23.7968Q131.063 23.7995 131.307 23.8177Q131.551 23.8358 131.793 23.8694Q132.036 23.9029 132.276 23.9517Q132.516 24.0005 132.752 24.0644Q132.988 24.1283 133.22 24.2069Q133.451 24.2856 133.678 24.3788Q133.904 24.472 134.124 24.5793Z" id="Rectangle-3" fill="#D3D3D3" fill-opacity="0.81960785" fill-rule="evenodd" stroke="none" />
      <g fill="#D3D3D3" stroke="none" id="N" transform="translate(157 6)">
        <path d="M49.021 17.4545L49.021 70.5455L39.3256 70.5455L16.228 37.1303L15.8391 37.1303L15.8391 70.5455L4.61435 70.5455L4.61435 17.4545L14.4652 17.4545L37.3814 50.8438L37.848 50.8438L37.848 17.4545L49.021 17.4545Z" />
      </g>
    </g>
  </g>
</svg>